
<svg xmlns="http://www.w3.org/2000/svg">
    <defs>
        <!--
         Original dimensions: width="18" height="24"
         Style via: stroke
         -->

        <symbol id="svg-icon-clipboard" xmlns="http://www.w3.org/2000/svg" viewBox="0 0 18 24">
            <g fill="none" fill-rule="evenodd" stroke="inherit" stroke-linecap="round" stroke-linejoin="round" stroke-width="2" transform="translate(1 1)">
                <polyline points="12 3 16 3 16 22 0 22 0 3 4 3"/>
                <path d="M10 2C10 .895 9.105 0 8 0 6.895 0 6 .895 6 2L4 2 4 6 12 6 12 2 10 2 10 2zM4 10L12 10M4 14L12 14M4 18L7 18"/>
            </g>
        </symbol>

    </defs>
    <defs>
        <!--
         Original dimensions: width="24" height="24"
         Style via: stroke
         -->

        <symbol id="svg-icon-playback" xmlns="http://www.w3.org/2000/svg" viewBox="0 0 24 24">
            <g fill="none" fill-rule="evenodd" stroke="inherit" stroke-linecap="round" stroke-linejoin="round" stroke-width="2" transform="translate(1 1)">
                <polygon points="22 22 0 22 0 0 22 0"/>
                <polygon points="9 8 13 11 9 14"/>
                <path d="M0 4L22 4M0 18L22 18M5 0L5 4M9 0L9 4M13 0L13 4M17 0L17 4M5 18L5 22M9 18L9 22M13 18L13 22M17 18L17 22"/>
            </g>
        </symbol>

    </defs>
    <defs>
        <!--
         Original dimensions: width="22" height="22"
         Style via: stroke
         -->

        <symbol id="svg-icon-graph" xmlns="http://www.w3.org/2000/svg" viewBox="0 0 22 22">
            <g fill="none" fill-rule="evenodd" stroke="inherit" stroke-linecap="round" stroke-linejoin="round" stroke-width="2" transform="translate(1 1)">
                <polygon points="12 20 8 20 8 11 12 11"/>
                <polygon points="4 20 0 20 0 15 4 15"/>
                <polygon points="20 20 16 20 16 7 20 7"/>
                <polyline points="3 8 7 4 10 7 17 0"/>
                <polyline points="13 0 17 0 17 4"/>
            </g>
        </symbol>

    </defs>
    <defs>
        <!--
         Original dimensions: width="21" height="16"
         Style via: stroke
         -->

        <symbol id="svg-icon-eye" xmlns="http://www.w3.org/2000/svg" viewBox="0 0 21 16">
            <g fill="none" fill-rule="evenodd" stroke="inherit" stroke-linecap="round" stroke-linejoin="round" stroke-width="2" transform="translate(1 1)">
                <path d="M0,6.65 C0,6.65 3.8,0 9.5,0 C15.2,0 19,6.65 19,6.65 C19,6.65 15.2,13.3 9.5,13.3 C3.8,13.3 0,6.65 0,6.65 L0,6.65 Z"/>
                <path d="M9.5,3.8 C11.07415,3.8 12.35,5.07585 12.35,6.65 C12.35,8.22415 11.07415,9.5 9.5,9.5 C7.92585,9.5 6.65,8.22415 6.65,6.65 C6.65,5.07585 7.92585,3.8 9.5,3.8 L9.5,3.8 Z"/>
            </g>
        </symbol>

    </defs>
    <defs>
        <!--
         Original dimensions: width="17" height="17"
         Style via: stroke
         -->

        <symbol id="svg-icon-file" xmlns="http://www.w3.org/2000/svg" viewBox="0 0 17 17">
            <g fill="none" fill-rule="evenodd" stroke="inherit" stroke-linecap="round" stroke-linejoin="round" stroke-width="2" transform="translate(1 1)">
                <polygon points="0 0 15 0 15 15 0 15"/>
                <path d="M3.40909091 7.5L11.5909091 7.5M3.40909091 4.09090909L11.5909091 4.09090909M3.40909091 10.9090909L11.5909091 10.9090909"/>
            </g>
        </symbol>

    </defs>
    <defs>
        <!--
         Original dimensions: width="16" height="16"
         Style via: fill
         -->

        <symbol id="svg-icon-play" xmlns="http://www.w3.org/2000/svg" viewBox="0 0 16 16">
            <path fill="inherit" fill-rule="evenodd" d="M15,2 L1,2 C0.4,2 0,2.4 0,3 L0,17 C0,17.6 0.4,18 1,18 L15,18 C15.6,18 16,17.6 16,17 L16,3 C16,2.4 15.6,2 15,2 L15,2 Z M10.6,10.8 L6.6,13.8 C6,14.3 5,13.8 5,13 L5,7 C5,6.2 5.9,5.7 6.6,6.2 L10.6,9.2 C11.1,9.6 11.1,10.4 10.6,10.8 L10.6,10.8 Z" transform="translate(0 -2)"/>
        </symbol>

    </defs>
    <defs>
        <!--
         Original dimensions: width="16" height="16"
         Style via: fill
         -->

        <symbol id="svg-icon-plus" xmlns="http://www.w3.org/2000/svg" viewBox="0 0 16 16">
            <g fill="inherit" fill-rule="evenodd">
                <path d="M8,16 C3.6,16 0,12.4 0,8 C0,3.6 3.6,0 8,0 C12.4,0 16,3.6 16,8 C16,12.4 12.4,16 8,16 L8,16 Z M8,2 C4.7,2 2,4.7 2,8 C2,11.3 4.7,14 8,14 C11.3,14 14,11.3 14,8 C14,4.7 11.3,2 8,2 L8,2 Z"/>
                <polyline points="12 7 9 7 9 4 7 4 7 7 4 7 4 9 7 9 7 12 9 12 9 9 12 9 12 7"/>
            </g>
        </symbol>

    </defs>
    <defs>
        <!--
         Original dimensions: width="16" height="14"
         Style via: fill
         -->

        <symbol id="svg-icon-heart" xmlns="http://www.w3.org/2000/svg" viewBox="0 0 16 14">
            <path fill="inherit" fill-rule="evenodd" d="M14.68175,4.31775 C12.92475,2.56075 10.07475,2.56075 8.31775,4.31775 C8.19675,4.43875 8.10375,4.57675 7.99975,4.70675 C7.89575,4.57675 7.80275,4.43875 7.68175,4.31775 C5.92475,2.56075 3.07475,2.56075 1.31775,4.31775 C-0.43925,6.07475 -0.43925,8.92475 1.31775,10.68175 L7.99975,16.99975 L14.68175,10.68175 C16.43875,8.92475 16.43875,6.07475 14.68175,4.31775" transform="translate(0 -3)"/>
        </symbol>

    </defs>
    <defs>
        <!--
         Original dimensions: width="15" height="15"
         Style via: fill, stroke
         -->

        <symbol id="svg-icon-help" xmlns="http://www.w3.org/2000/svg" viewBox="0 0 15 15">
            <g fill="inherit" fill-rule="evenodd">
                <path stroke="none" fill="inherit" d="M8.7704918,8.09142857 C8.36065574,8.37428571 8.36065574,8.46857143 8.36065574,8.65714286 L8.36065574,9.6 L6.72131148,9.6 L6.72131148,8.65714286 C6.72131148,7.43142857 7.37704918,6.86571429 7.86885246,6.48857143 C8.27868852,6.20571429 8.36065574,6.11142857 8.36065574,5.82857143 C8.36065574,5.26285714 8.03278689,4.88571429 7.54098361,4.88571429 C7.21311475,4.88571429 6.96721311,5.07428571 6.80327869,5.35714286 L6.39344262,6.20571429 L5,5.26285714 L5.40983607,4.41428571 C5.81967213,3.56571429 6.63934426,3 7.54098361,3 C8.93442623,3 10,4.22571429 10,5.82857143 C10,7.14857143 9.26229508,7.71428571 8.7704918,8.09142857 Z M7.54098361,12 C7.04918033,12 6.72131148,11.68 6.72131148,11.2 C6.72131148,10.72 7.04918033,10.4 7.54098361,10.4 C8.03278689,10.4 8.36065574,10.72 8.36065574,11.2 C8.36065574,11.68 8.03278689,12 7.54098361,12 Z"/>
                <circle cx="7.5" cy="7.5" r="6.75" fill="none" stroke="inherit" stroke-width="1.5"/>
            </g>
        </symbol>

    </defs>
    <defs>
        <!--
         Original dimensions: width="16" height="16"
         Style via: fill
         -->

        <symbol id="svg-icon-language" xmlns="http://www.w3.org/2000/svg" viewBox="0 0 16 16">
            <path fill="inherit" fill-rule="evenodd" d="M8,3 C3.6,3 0,6.6 0,11 C0,15.4 3.6,19 8,19 C12.4,19 16,15.4 16,11 C16,6.6 12.4,3 8,3 L8,3 Z M13.9,10 L12,10 C11.9,8.5 11.6,7.1 11.2,5.9 C12.6,6.8 13.6,8.3 13.9,10 L13.9,10 Z M8,17 C7.4,17 6.2,15.1 6,12 L10,12 C9.8,15.1 8.6,17 8,17 L8,17 Z M6,10 C6.2,6.9 7.3,5 8,5 C8.7,5 9.8,6.9 10,10 L6,10 L6,10 Z M4.9,5.9 C4.4,7.1 4.1,8.5 4,10 L2.1,10 C2.4,8.3 3.4,6.8 4.9,5.9 L4.9,5.9 Z M2.1,12 L4,12 C4.1,13.5 4.4,14.9 4.8,16.1 C3.4,15.2 2.4,13.7 2.1,12 L2.1,12 Z M11.1,16.1 C11.6,14.9 11.8,13.5 11.9,12 L13.8,12 C13.6,13.7 12.6,15.2 11.1,16.1 L11.1,16.1 Z" transform="translate(0 -3)"/>
        </symbol>
    </defs>
    <defs>
        <!--
         Original dimensions: width="15" height="15"
         Style via: fill, stroke
         -->

        <symbol id="svg-icon-profile" xmlns="http://www.w3.org/2000/svg" viewBox="0 0 15 15">
            <g fill-rule="evenodd">
                <circle cx="7.5" cy="7.5" r="7.5" stroke="none" fill="inherit"/>
                <path fill="#3C435C" d="M1.44914626,11.9322406 C2.81401408,13.7923972 5.01598166,15 7.5,15 C9.98265572,15 12.1835701,13.7937217 13.5486069,11.9353012 L9.96459961,7.5 C9.41691081,7.5 8.5953776,7.5 7.5,7.5 L5.01302083,7.5"/>
                <circle cx="7.5" cy="7.5" r="6.5" fill="none" stroke="inherit" stroke-width="2"/>
                <circle cx="7.5" cy="5" r="3.333" fill="#3C435C" stroke="inherit" stroke-width="2"/>
            </g>
        </symbol>

    </defs>
    <defs>
        <!--
         Original dimensions: width="12" height="7"
         Style via: stroke
         -->

        <symbol id="svg-icon-caret-down" xmlns="http://www.w3.org/2000/svg" viewBox="0 0 12 7">
            <polyline fill="none" stroke="inherit" stroke-linecap="round" stroke-linejoin="round" stroke-width="2" points="342 25 347 30 352 25" transform="translate(-341 -24)"/>
        </symbol>

    </defs>
    <defs>
        <!--
         Original dimensions: width="10" height="15"
         Style via: fill
         -->
    </defs>
    <defs>
        <!--
         Original dimensions: width="10" height="15"
         Style via: fill
         -->
    </defs>
    <defs>
        <!--
         Original dimensions: width="10" height="15"
         Style via: fill
         -->
    </defs>
    <defs>
        <!--
         Original dimensions: width="10" height="15"
         Style via: fill
         -->
    </defs>
    <defs>
        <!--
         Original dimensions: width="10" height="15"
         Style via: fill
         -->
    </defs>
</svg>